<?xml version="1.0" standalone="no"?>
<!DOCTYPE svg PUBLIC "-//W3C//DTD SVG 20010904//EN"
 "http://www.w3.org/TR/2001/REC-SVG-20010904/DTD/svg10.dtd">
<svg version="1.0" xmlns="http://www.w3.org/2000/svg"
 width="512.000000pt" height="512.000000pt" viewBox="0 0 512.000000 512.000000"
 preserveAspectRatio="xMidYMid meet">

<g transform="translate(0.000000,512.000000) scale(0.100000,-0.100000)"
fill="#000000" stroke="none">
<path d="M1588 5099 c-23 -12 -46 -35 -58 -59 -20 -39 -20 -57 -20 -1120 0
-1063 0 -1081 20 -1120 13 -25 34 -47 58 -59 20 -10 212 -76 425 -147 l388
-129 -5 -35 c-3 -19 -36 -338 -72 -708 l-67 -674 21 -43 c38 -79 129 -106 207
-62 39 21 55 52 583 1105 408 816 542 1091 542 1118 0 43 -31 106 -62 126 -13
8 -195 72 -406 143 -245 81 -382 131 -379 139 3 6 127 316 276 689 149 372
271 691 271 707 0 50 -36 107 -80 130 -38 20 -57 20 -822 20 -760 -1 -784 -1
-820 -21z m1086 -939 c-147 -367 -264 -674 -264 -691 0 -45 29 -98 64 -120 17
-11 196 -74 399 -141 202 -68 367 -127 366 -133 0 -5 -135 -278 -300 -605
-165 -327 -297 -581 -295 -565 3 17 19 178 37 358 l32 329 -21 43 c-13 28 -34
51 -54 61 -18 10 -211 76 -428 149 l-395 132 -3 921 -2 922 564 0 564 0 -264
-660z"/>
<path d="M345 1486 c-84 -21 -147 -57 -211 -121 -65 -65 -105 -136 -123 -223
-7 -35 -11 -220 -11 -538 0 -466 1 -486 20 -524 23 -45 80 -80 130 -80 50 0
107 35 130 80 18 36 20 58 20 280 l0 240 150 0 150 0 0 -240 c0 -222 2 -244
20 -280 23 -45 80 -80 130 -80 50 0 107 35 130 80 19 38 20 58 20 524 0 324
-4 503 -11 538 -19 86 -59 158 -124 224 -112 113 -269 158 -420 120z m175
-306 c60 -31 80 -78 80 -190 l0 -90 -150 0 -150 0 0 93 c1 109 17 147 76 183
48 29 92 30 144 4z"/>
<path d="M1545 1486 c-84 -21 -147 -57 -211 -121 -177 -176 -177 -453 1 -630
83 -84 201 -135 311 -135 80 0 154 -72 154 -150 0 -50 -35 -107 -80 -130 -65
-33 -122 -23 -193 36 -40 33 -89 40 -142 19 -54 -20 -86 -62 -93 -121 -6 -58
11 -96 66 -144 211 -186 554 -122 685 128 95 181 65 384 -78 528 -84 84 -200
134 -312 134 -77 0 -153 74 -153 150 0 50 35 107 80 130 65 33 122 23 193 -36
40 -33 89 -40 142 -19 54 20 86 62 93 121 6 58 -11 96 -66 144 -105 93 -260
130 -397 96z"/>
<path d="M3365 1486 c-84 -21 -147 -57 -211 -121 -65 -65 -105 -136 -123 -223
-7 -35 -11 -220 -11 -538 0 -466 1 -486 20 -524 23 -45 80 -80 130 -80 50 0
107 35 130 80 18 36 20 58 20 280 l0 240 150 0 150 0 0 -240 c0 -222 2 -244
20 -280 23 -45 80 -80 130 -80 50 0 107 35 130 80 19 38 20 58 20 524 0 324
-4 503 -11 538 -19 86 -59 158 -124 224 -112 113 -269 158 -420 120z m175
-306 c60 -31 80 -78 80 -190 l0 -90 -150 0 -150 0 0 93 c1 109 17 147 76 183
48 29 92 30 144 4z"/>
<path d="M4298 1479 c-23 -12 -46 -35 -58 -59 -19 -38 -20 -58 -20 -670 0
-612 1 -632 20 -670 23 -45 80 -80 130 -80 50 0 107 35 130 80 18 36 20 58 20
280 l0 240 95 0 c51 0 118 5 147 11 179 38 318 184 350 368 40 232 -117 460
-350 510 -29 6 -137 11 -240 11 -166 -1 -191 -3 -224 -21z m442 -299 c45 -23
80 -80 80 -130 0 -50 -35 -107 -80 -130 -31 -16 -59 -20 -130 -20 l-90 0 0
150 0 150 90 0 c71 0 99 -4 130 -20z"/>
</g>
</svg>
